<?xml version="1.0" standalone="no"?>
<!DOCTYPE svg PUBLIC "-//W3C//DTD SVG 20010904//EN"
 "http://www.w3.org/TR/2001/REC-SVG-20010904/DTD/svg10.dtd">
<svg version="1.0" xmlns="http://www.w3.org/2000/svg"
 width="400.000000pt" height="400.000000pt" viewBox="0 0 400.000000 400.000000"
 preserveAspectRatio="xMidYMid meet">
<metadata>
Created by potrace 1.11, written by Peter Selinger 2001-2013
</metadata>
<g transform="translate(0.000000,400.000000) scale(0.100000,-0.100000)"
fill="#000000" stroke="none">
<path d="M1120 3094 l-785 -375 -77 -125 -78 -126 0 -472 0 -472 71 -114 c39
-63 78 -122 88 -131 9 -9 366 -175 794 -368 l778 -351 89 0 90 0 779 356 779
356 81 130 81 130 -1 466 0 467 -82 129 -82 128 -778 374 -777 374 -93 -1 -92
0 -785 -375z m929 -400 c25 -5 31 -11 29 -28 -3 -19 -8 -21 -65 -18 -51 3 -64
1 -82 -17 -12 -12 -21 -34 -21 -51 l0 -30 70 0 c68 0 70 -1 70 -25 0 -24 -2
-25 -70 -25 l-70 0 0 -135 0 -135 -35 0 -35 0 0 135 0 135 -51 0 c-47 0 -50 2
-47 23 3 19 10 22 50 25 46 3 47 4 53 42 7 44 37 87 69 100 26 11 92 12 135 4z
m-1091 -98 c-3 -64 0 -93 7 -88 5 3 22 14 37 25 17 13 42 19 76 19 102 0 122
-33 122 -202 l0 -120 -30 0 -30 0 0 93 c0 97 -11 155 -32 169 -25 15 -82 8
-115 -14 l-33 -23 0 -112 0 -113 -35 0 -35 0 0 230 0 230 36 0 36 0 -4 -94z
m-218 48 c55 -29 56 -31 36 -53 l-19 -21 -34 21 c-26 17 -45 20 -79 16 -77 -8
-124 -71 -124 -164 1 -133 98 -205 202 -149 45 24 47 24 63 6 15 -17 14 -20
-21 -46 -52 -40 -141 -45 -204 -12 -87 47 -130 166 -99 275 33 119 174 183
279 127z m823 -111 c39 -20 67 -70 67 -120 l0 -43 -135 0 -135 0 13 -32 c24
-60 107 -83 190 -54 34 13 38 12 48 -5 9 -17 4 -22 -33 -39 -59 -27 -133 -26
-188 3 -61 31 -83 65 -88 134 -3 48 0 64 20 92 57 84 152 109 241 64z m455
-445 c-3 -72 -21 -81 -26 -13 l-3 45 -50 0 -49 0 0 -134 0 -135 37 -3 c20 -2
38 -9 41 -15 3 -10 -20 -13 -93 -13 -73 0 -96 3 -93 13 3 6 21 13 41 15 l37 3
0 135 0 134 -49 0 -50 0 -3 -47 c-4 -69 -22 -59 -26 15 l-3 62 146 0 146 0 -3
-62z m-375 27 c1 -6 -52 -38 -118 -71 l-119 -62 122 -61 c112 -56 145 -81 107
-81 -8 0 -75 32 -150 71 l-137 72 139 73 c136 72 153 78 156 59z m1719 -57
c116 -61 136 -75 123 -84 -38 -28 -264 -138 -270 -132 -14 14 9 30 118 85
l112 56 -118 58 c-71 36 -117 65 -117 74 0 8 3 15 6 15 4 0 69 -33 146 -72z
m-1054 -8 l32 -20 0 -89 c0 -84 1 -90 22 -93 41 -6 32 -28 -11 -28 -28 0 -41
4 -41 14 0 11 -8 10 -37 -5 -92 -47 -193 2 -168 81 12 38 63 60 138 60 65 0
67 1 67 25 0 41 -62 58 -137 36 -21 -6 -35 -6 -39 0 -8 14 0 20 38 29 58 14
102 11 136 -10z m362 -5 c18 -16 20 -16 20 -2 0 13 10 17 41 17 43 0 52 -22
11 -28 -21 -3 -22 -8 -22 -131 l0 -127 -31 -30 c-27 -25 -37 -29 -91 -29 -40
0 -63 4 -65 13 -3 8 11 12 50 12 73 0 107 25 107 81 l0 40 -27 -15 c-82 -42
-169 -8 -194 73 -9 32 -8 44 7 76 25 53 67 77 127 72 26 -2 56 -12 67 -22z
m398 15 c18 0 22 -6 22 -35 0 -41 -10 -44 -44 -10 -19 19 -36 25 -66 25 -48 0
-80 -14 -80 -36 0 -18 29 -31 104 -44 72 -12 98 -33 94 -74 -2 -22 -13 -37
-38 -54 -30 -21 -42 -23 -90 -17 -30 3 -68 7 -85 8 -27 2 -30 5 -30 36 0 38
23 55 32 23 16 -61 183 -53 183 9 0 23 -25 35 -104 49 -66 11 -96 32 -96 65 0
44 44 66 120 60 30 -2 65 -5 78 -5z m462 -385 c0 -13 -129 -15 -1105 -15 -976
0 -1105 2 -1105 15 0 13 129 15 1105 15 976 0 1105 -2 1105 -15z m-2365 -314
l10 -43 13 47 c14 53 32 55 46 7 12 -42 22 -40 30 3 7 33 36 52 36 23 0 -28
-37 -132 -47 -135 -7 -3 -18 17 -25 44 l-14 48 -13 -40 c-14 -43 -27 -62 -36
-53 -4 3 -12 28 -19 54 -7 27 -16 60 -20 72 -7 20 -5 23 10 20 12 -2 22 -18
29 -47z m235 34 c0 -10 -10 -15 -30 -15 -20 0 -30 -5 -30 -15 0 -9 9 -15 25
-15 14 0 25 -4 25 -10 0 -5 -11 -10 -25 -10 -18 0 -25 -5 -25 -20 0 -16 7 -20
30 -20 20 0 30 -5 30 -15 0 -11 -12 -15 -45 -15 l-45 0 0 75 0 75 45 0 c33 0
45 -4 45 -15z m95 1 c12 -9 16 -20 12 -36 -3 -13 -2 -31 4 -41 13 -26 -22 -59
-61 -59 l-30 0 0 75 0 75 28 0 c16 0 36 -6 47 -14z m182 -12 c20 -20 24 -31
19 -57 -9 -44 -28 -59 -73 -61 l-38 -1 -3 73 -3 72 36 0 c25 0 44 -8 62 -26z
m123 11 c0 -9 -9 -15 -25 -15 -16 0 -25 -6 -25 -15 0 -8 9 -15 20 -15 11 0 20
-4 20 -10 0 -5 -9 -10 -20 -10 -31 0 -26 -38 5 -42 42 -5 28 -23 -17 -23 l-43
0 -3 59 c-2 32 -1 65 2 72 8 20 86 19 86 -1z m50 -31 c14 -50 22 -48 40 9 6
20 18 37 26 37 18 0 18 3 -12 -80 -15 -39 -32 -69 -37 -67 -12 4 -57 111 -57
134 0 7 6 13 14 13 7 0 19 -20 26 -46z m178 34 c-3 -7 -17 -14 -31 -16 -35 -4
-36 -32 -1 -32 14 0 23 -4 19 -10 -3 -5 -15 -10 -26 -10 -12 0 -19 -7 -19 -20
0 -16 7 -20 30 -20 20 0 30 -5 30 -15 0 -11 -12 -15 -45 -15 l-45 0 0 75 0 75
46 0 c32 0 44 -4 42 -12z m42 -47 c0 -56 1 -60 25 -63 40 -5 30 -23 -12 -23
l-38 0 -3 73 c-2 59 0 72 13 72 12 0 15 -13 15 -59z m154 37 c19 -27 21 -78 4
-101 -39 -49 -108 -19 -108 48 0 65 71 101 104 53z m114 10 c27 -27 7 -78 -30
-78 -13 0 -18 -8 -18 -30 0 -20 -5 -30 -15 -30 -12 0 -15 15 -15 75 l0 75 33
0 c18 0 38 -5 45 -12z m78 -33 c9 -25 20 -45 24 -45 4 0 15 20 25 45 24 65 39
52 43 -34 2 -56 0 -72 -10 -69 -7 3 -15 18 -18 34 l-6 29 -11 -32 c-7 -18 -17
-33 -23 -33 -6 0 -16 15 -23 33 l-11 32 -6 -29 c-3 -16 -11 -31 -17 -34 -10
-3 -13 16 -13 72 0 90 18 103 46 31z m204 30 c0 -10 -10 -15 -30 -15 -20 0
-30 -5 -30 -15 0 -9 9 -15 25 -15 14 0 25 -4 25 -10 0 -5 -11 -10 -25 -10 -18
0 -25 -5 -25 -19 0 -15 8 -21 33 -23 47 -4 35 -23 -15 -23 l-43 0 -3 73 -3 72
46 0 c33 0 45 -4 45 -15z m67 -27 l28 -42 3 42 c2 29 8 42 18 42 11 0 14 -16
14 -76 0 -86 -9 -92 -50 -29 l-25 38 -3 -42 c-2 -28 -8 -41 -18 -41 -11 0 -14
16 -14 75 0 43 4 75 10 75 5 0 22 -19 37 -42z m173 27 c0 -8 -7 -15 -15 -15
-10 0 -15 -15 -17 -57 -2 -44 -7 -58 -18 -58 -11 0 -16 14 -18 58 -2 42 -7 57
-17 57 -8 0 -15 7 -15 15 0 11 12 15 50 15 38 0 50 -4 50 -15z"/>
<path d="M1440 2499 c-32 -13 -70 -49 -70 -66 0 -10 24 -13 100 -13 90 0 100
2 100 18 0 44 -80 81 -130 61z"/>
<path d="M2165 1928 c-38 -21 -45 -47 -19 -72 21 -22 77 -20 124 4 33 17 40
26 40 50 l0 30 -62 0 c-35 0 -72 -6 -83 -12z"/>
<path d="M2533 2022 c-48 -37 -49 -110 -2 -143 66 -48 159 -8 159 68 0 50 -45
93 -97 93 -21 0 -48 -8 -60 -18z"/>
<path d="M1450 1364 c0 -9 5 -14 12 -12 18 6 21 28 4 28 -9 0 -16 -7 -16 -16z"/>
<path d="M1450 1310 c0 -11 7 -20 15 -20 8 0 15 6 15 14 0 8 -7 16 -15 20 -10
4 -15 -1 -15 -14z"/>
<path d="M1610 1335 c0 -42 2 -46 23 -43 19 3 22 9 22 43 0 34 -3 40 -22 43
-21 3 -23 -1 -23 -43z"/>
<path d="M2157 1373 c-20 -20 -2 -83 23 -83 22 0 34 32 26 66 -6 23 -34 33
-49 17z"/>
<path d="M2290 1359 c0 -24 23 -21 28 4 2 10 -3 17 -12 17 -10 0 -16 -9 -16
-21z"/>
</g>
</svg>
